<svg width="14" height="11" viewBox="0 0 14 11" fill="none" xmlns="http://www.w3.org/2000/svg">
<path d="M6.45196 10.046C6.51312 10.1348 6.59495 10.2074 6.69042 10.2576C6.78588 10.3078 6.89211 10.334 6.99996 10.334C7.10781 10.334 7.21403 10.3078 7.3095 10.2576C7.40496 10.2074 7.4868 10.1348 7.54796 10.046L13.548 1.37931C13.6174 1.27935 13.6581 1.16227 13.6657 1.04078C13.6733 0.9193 13.6474 0.798062 13.591 0.690242C13.5345 0.582423 13.4495 0.492145 13.3453 0.429218C13.2411 0.366292 13.1217 0.333122 13 0.333314H0.999958C0.87852 0.333815 0.759517 0.367412 0.655745 0.430489C0.551973 0.493567 0.46736 0.583739 0.411004 0.691309C0.354648 0.798879 0.328681 0.919777 0.335897 1.041C0.343113 1.16223 0.383238 1.27919 0.451958 1.37931L6.45196 10.046Z" fill="#303030"/>
</svg>
