<svg width="14" height="11" viewBox="0 0 14 11" fill="none" xmlns="http://www.w3.org/2000/svg">
<path d="M7.54804 0.954019C7.48688 0.865191 7.40505 0.792562 7.30958 0.742388C7.21412 0.692213 7.10789 0.665998 7.00004 0.665998C6.89219 0.665998 6.78597 0.692213 6.6905 0.742388C6.59504 0.792562 6.5132 0.865191 6.45204 0.954019L0.45204 9.62069C0.38259 9.72065 0.341864 9.83773 0.334284 9.95922C0.326705 10.0807 0.352563 10.2019 0.40905 10.3098C0.465536 10.4176 0.550491 10.5079 0.654683 10.5708C0.758876 10.6337 0.878321 10.6669 1.00004 10.6667L13 10.6667C13.1215 10.6662 13.2405 10.6326 13.3443 10.5695C13.448 10.5064 13.5326 10.4163 13.589 10.3087C13.6454 10.2011 13.6713 10.0802 13.6641 9.959C13.6569 9.83777 13.6168 9.72081 13.548 9.62069L7.54804 0.954019Z" fill="#303030"/>
</svg>
