<svg width="30" height="32" viewBox="0 0 30 32" fill="none" xmlns="http://www.w3.org/2000/svg">
<path d="M28.5353 25.8281C27.7984 24.0827 26.729 22.4973 25.3868 21.1602C24.0487 19.8192 22.4635 18.75 20.7188 18.0117C20.7032 18.0039 20.6876 18 20.672 17.9922C23.1056 16.2344 24.6876 13.3711 24.6876 10.1406C24.6876 4.78906 20.3517 0.453125 15.0001 0.453125C9.64853 0.453125 5.3126 4.78906 5.3126 10.1406C5.3126 13.3711 6.89463 16.2344 9.32822 17.9961C9.3126 18.0039 9.29697 18.0078 9.28135 18.0156C7.53135 18.7539 5.96104 19.8125 4.61338 21.1641C3.2724 22.5022 2.20324 24.0874 1.46494 25.832C0.739637 27.5401 0.348465 29.3713 0.312598 31.2266C0.311555 31.2683 0.318868 31.3097 0.334105 31.3486C0.349342 31.3874 0.372195 31.4228 0.401318 31.4526C0.430441 31.4825 0.465244 31.5062 0.503676 31.5224C0.542109 31.5386 0.583394 31.5469 0.625098 31.5469H2.96885C3.14072 31.5469 3.27744 31.4102 3.28135 31.2422C3.35947 28.2266 4.57041 25.4023 6.71103 23.2617C8.92588 21.0469 11.8673 19.8281 15.0001 19.8281C18.1329 19.8281 21.0743 21.0469 23.2892 23.2617C25.4298 25.4023 26.6407 28.2266 26.7188 31.2422C26.7228 31.4141 26.8595 31.5469 27.0313 31.5469H29.3751C29.4168 31.5469 29.4581 31.5386 29.4965 31.5224C29.535 31.5062 29.5698 31.4825 29.5989 31.4526C29.628 31.4228 29.6509 31.3874 29.6661 31.3486C29.6813 31.3097 29.6886 31.2683 29.6876 31.2266C29.6485 29.3594 29.2618 27.543 28.5353 25.8281ZM15.0001 16.8594C13.2071 16.8594 11.5196 16.1602 10.2501 14.8906C8.98057 13.6211 8.28135 11.9336 8.28135 10.1406C8.28135 8.34766 8.98057 6.66016 10.2501 5.39062C11.5196 4.12109 13.2071 3.42188 15.0001 3.42188C16.7931 3.42188 18.4806 4.12109 19.7501 5.39062C21.0196 6.66016 21.7188 8.34766 21.7188 10.1406C21.7188 11.9336 21.0196 13.6211 19.7501 14.8906C18.4806 16.1602 16.7931 16.8594 15.0001 16.8594Z" fill="#303030"/>
</svg>
